# xmcd
#
# Track frame offsets:
#	150
#	13847
#	33287
#	50430
#	69955
#	90247
#	112017
#	132542
#	144080
#	164900
#	183785
#	201830
#	213590
#	226905
#	250230
#
# Disc length: 3582 seconds
#
# Revision: 1
# Processed by: cddbd v1.5.1PL0 Copyright (c) Steve Scherf et al.
# Submitted via: CDex 1.50Beta5
#
DISCID=cf0dfc0f
DTITLE=吉田拓郎 - 歌草子/全集 Disc 4
DYEAR=1985
DGENRE=
TTITLE0=こうき心’73
TTITLE1=野の仏
TTITLE2=ひらひら
TTITLE3=ひらひら
TTITLE4=竜飛崎
TTITLE5=ペニーレインでバーボン
TTITLE6=人生を語らず
TTITLE7=世捨人唄
TTITLE8=三軒目の店ごとに
TTITLE9=襟裳岬
TTITLE10=知識
TTITLE11=暮らし
TTITLE12=戻ってきた恋人
TTITLE13=僕の唄はサヨナラだけ
TTITLE14=贈り物
EXTD=
EXTT0=
EXTT1=
EXTT2=
EXTT3=
EXTT4=
EXTT5=
EXTT6=
EXTT7=
EXTT8=
EXTT9=
EXTT10=
EXTT11=
EXTT12=
EXTT13=
EXTT14=
PLAYORDER=
